<svg width="22" height="23" viewBox="0 0 22 23" fill="none" xmlns="http://www.w3.org/2000/svg">
<g clip-path="url(#clip0_1_22809)">
<path d="M14.936 0.620046L6.99175 0.758712C5.23597 0.789359 3.56428 1.51623 2.34443 2.77942C1.12458 4.04262 0.45649 5.73866 0.487137 7.49444L0.625804 15.4386C0.656451 17.1944 1.38332 18.8661 2.64652 20.086C3.90971 21.3058 5.60575 21.9739 7.36153 21.9432L15.3057 21.8046C17.0615 21.7739 18.7332 21.0471 19.953 19.7839C21.1729 18.5207 21.841 16.8246 21.8103 15.0689L21.6717 7.12466C21.641 5.36888 20.9142 3.69719 19.651 2.47734C18.3878 1.25749 16.6917 0.589398 14.936 0.620046V0.620046ZM19.8243 15.1035C19.8689 17.6589 17.8264 19.7739 15.2711 19.8185L7.32686 19.9572C4.77148 20.0018 2.65646 17.9594 2.61185 15.404L2.47319 7.45977C2.42858 4.90438 4.47103 2.78937 7.02642 2.74476L14.9706 2.6061C17.526 2.56149 19.641 4.60394 19.6856 7.15932L19.8243 15.1035Z" fill="url(#paint0_linear_1_22809)"/>
<path d="M11.0564 5.98544C9.65177 6.00995 8.31441 6.59145 7.33853 7.60201C6.36265 8.61256 5.82818 9.96939 5.8527 11.374C5.87722 12.7786 6.45871 14.116 7.46927 15.0919C8.47982 16.0678 9.83665 16.6022 11.2413 16.5777C12.6459 16.5532 13.9833 15.9717 14.9591 14.9611C15.935 13.9506 16.4695 12.5937 16.445 11.1891C16.4204 9.7845 15.839 8.44715 14.8284 7.47127C13.8178 6.49539 12.461 5.96092 11.0564 5.98544ZM11.2066 14.5917C10.329 14.6059 9.48161 14.2715 8.85025 13.6618C8.21888 13.0521 7.85512 12.2169 7.83875 11.3393C7.80688 9.51351 9.26654 8.00333 11.0911 7.97149C12.9156 7.93964 14.427 9.39795 14.4589 11.2238C14.4908 13.0483 13.0311 14.5598 11.2066 14.5917Z" fill="url(#paint1_linear_1_22809)"/>
<path d="M16.755 6.19476C17.1448 6.18795 17.4552 5.86648 17.4484 5.47673C17.4416 5.08697 17.1201 4.77653 16.7304 4.78334C16.3406 4.79014 16.0302 5.11161 16.037 5.50136C16.0438 5.89112 16.3653 6.20156 16.755 6.19476Z" fill="url(#paint2_linear_1_22809)"/>
</g>
<defs>
<linearGradient id="paint0_linear_1_22809" x1="2.64591" y1="20.0866" x2="19.6516" y2="2.47671" gradientUnits="userSpaceOnUse">
<stop stop-color="#FFC107"/>
<stop offset="0.507" stop-color="#F44336"/>
<stop offset="0.99" stop-color="#9C27B0"/>
</linearGradient>
<linearGradient id="paint1_linear_1_22809" x1="7.46982" y1="15.0913" x2="14.8278" y2="7.47185" gradientUnits="userSpaceOnUse">
<stop stop-color="#FFC107"/>
<stop offset="0.507" stop-color="#F44336"/>
<stop offset="0.99" stop-color="#9C27B0"/>
</linearGradient>
<linearGradient id="paint2_linear_1_22809" x1="16.2522" y1="5.99692" x2="17.2331" y2="4.98117" gradientUnits="userSpaceOnUse">
<stop stop-color="#FFC107"/>
<stop offset="0.507" stop-color="#F44336"/>
<stop offset="0.99" stop-color="#9C27B0"/>
</linearGradient>
<clipPath id="clip0_1_22809">
<rect width="21.1878" height="21.1878" fill="white" transform="translate(0.371582 0.874268) rotate(-1)"/>
</clipPath>
</defs>
</svg>
