<svg width="115" height="22" viewBox="0 0 115 22" fill="none" xmlns="http://www.w3.org/2000/svg">
<path d="M1.5528 10.6459L0.048584 16.7672H7.49265L10.5387 4.31472L1.5528 10.6459ZM27.4108 5.25661C27.2289 5.99464 26.8783 6.53674 26.3554 6.88292C25.8338 7.22844 25.1017 7.40186 24.1567 7.40186H21.1544L22.2085 3.11269H25.2109C26.1547 3.11269 26.8031 3.28479 27.1549 3.6356C27.5067 3.98641 27.5916 4.52256 27.4108 5.2639M30.5193 5.17123C30.9015 3.62236 30.7438 2.43093 30.045 1.59693C29.3475 0.769541 28.1235 0.352539 26.3767 0.352539H19.6762L15.6427 16.7745H18.898L20.5236 10.1554H22.6586C23.1377 10.1554 23.515 10.2414 23.7904 10.4069C24.0664 10.579 24.2283 10.8769 24.278 11.3071L24.8591 16.7745H28.3467L27.7814 11.6778C27.6662 10.5393 27.1888 9.87077 26.35 9.6722C27.4193 9.33463 28.3152 8.77201 29.037 7.99096C29.7537 7.21562 30.2658 6.24386 30.5193 5.17785M38.4323 10.8967C38.1593 12.0087 37.7408 12.8494 37.1749 13.4385C36.6084 14.0276 35.9315 14.3188 35.1418 14.3188C34.3375 14.3188 33.7922 14.0342 33.5041 13.4583C33.2154 12.8825 33.2057 12.0485 33.4738 10.9563C33.7419 9.86415 34.1695 9.01029 34.7578 8.39472C35.3462 7.77915 36.034 7.47136 36.8237 7.47136C37.6122 7.47136 38.152 7.76922 38.425 8.3603C38.704 8.95403 38.7101 9.80326 38.4371 10.9086L38.4323 10.8967ZM39.8588 5.08518L39.4512 6.74657C39.2754 6.15085 38.9339 5.67428 38.4292 5.31685C37.9234 4.96604 37.2974 4.78732 36.5508 4.78732C35.6349 4.78732 34.7554 5.04547 33.9123 5.56175C33.0692 6.07804 32.3293 6.80614 31.6985 7.74605C31.0677 8.68596 30.6067 9.75163 30.3095 10.9497C30.0183 12.1544 29.9577 13.2068 30.1336 14.1202C30.3155 15.0403 30.6977 15.7419 31.286 16.2317C31.8804 16.7281 32.6386 16.973 33.5666 16.973C34.304 16.9771 35.0331 16.8031 35.7016 16.4634C36.3626 16.138 36.9505 15.6591 37.4242 15.0601L36.9996 16.7917H40.1476L43.0219 5.09114H39.8679L39.8588 5.08518ZM54.3339 5.08518H45.1794L44.5395 7.6931H49.8661L42.8242 14.332L42.2225 16.7811H51.6724L52.3123 14.1732H46.6048L53.7547 7.43495M62.3918 10.8769C62.1086 12.0286 61.6882 12.8944 61.1332 13.4583C60.5783 14.0276 59.9062 14.3122 59.1171 14.3122C57.4673 14.3122 56.9251 13.1671 57.4879 10.8769C57.7669 9.73839 58.1891 8.88255 58.7532 8.30602C59.3173 7.72752 60.0008 7.43892 60.8045 7.43892C61.593 7.43892 62.1255 7.72553 62.3997 8.30271C62.6738 8.87857 62.6714 9.73707 62.3918 10.8756M64.2345 5.52535C63.5097 5.03289 62.5847 4.78666 61.4565 4.78666C60.3144 4.78666 59.2572 5.03157 58.2843 5.52138C57.3155 6.00812 56.464 6.73472 55.7975 7.64345C55.1121 8.56351 54.619 9.64242 54.3163 10.8736C54.0191 12.1001 53.9827 13.177 54.2132 14.099C54.4437 15.0191 54.9289 15.7273 55.6568 16.2171C56.3907 16.7109 57.3248 16.9565 58.4711 16.9565C59.5993 16.9565 60.6486 16.7089 61.613 16.2165C62.5774 15.7214 63.4023 15.0184 64.0877 14.0918C64.7731 13.1691 65.2644 12.0928 65.5676 10.8616C65.8709 9.6305 65.9073 8.55556 65.6768 7.63154C65.4463 6.71149 64.9672 6.00325 64.2454 5.51013M75.4725 8.21071L76.2791 5.02693C76.0062 4.87469 75.6484 4.79526 75.1995 4.79526C74.4777 4.79526 73.7863 4.98986 73.1191 5.38436C72.5453 5.71929 72.0576 6.19189 71.6452 6.78364L72.0637 5.06929L71.1496 5.07327H68.9054L66.0122 16.7692H69.2045L70.7057 10.6551C70.924 9.76619 71.317 9.06656 71.8842 8.57012C72.4482 8.07171 73.1518 7.82217 74.001 7.82217C74.5226 7.82217 75.0078 7.95257 75.4688 8.2127M84.3546 10.9331C84.0817 12.0253 83.6692 12.8593 83.1051 13.4351C82.5411 14.0137 81.8617 14.3022 81.0732 14.3022C80.2847 14.3022 79.7449 14.011 79.4598 13.4285C79.1687 12.8427 79.1626 11.9988 79.4356 10.8895C79.7085 9.78076 80.127 8.9302 80.7033 8.34111C81.2795 7.74737 81.9588 7.45084 82.7473 7.45084C83.5237 7.45084 84.0453 7.75532 84.3243 8.37089C84.6033 8.98647 84.6094 9.84033 84.3413 10.9325M86.5733 5.54454C85.982 5.02826 85.2268 4.77011 84.311 4.77011C83.5085 4.77011 82.7437 4.96868 82.0182 5.3698C81.2934 5.77026 80.7051 6.31633 80.2532 7.00736L80.2641 6.92793L80.7997 5.06797H77.6821L76.8875 8.3047L76.8632 8.41722L73.5879 21.7507H76.7844L78.4342 15.039C78.598 15.636 78.9315 16.1046 79.441 16.4435C79.9505 16.7811 80.5795 16.9486 81.3274 16.9486C82.2554 16.9486 83.1409 16.7036 83.981 16.2138C84.8241 15.7227 85.5519 15.0158 86.1706 14.1024C86.7893 13.1889 87.2484 12.1299 87.5414 10.9318C87.8386 9.73177 87.8992 8.66147 87.7294 7.72487C87.5565 6.78694 87.1738 6.06083 86.5831 5.54719M97.1763 10.8855C96.9033 11.9909 96.4848 12.8381 95.9207 13.4206C95.3567 14.007 94.6773 14.2989 93.8888 14.2989C93.0821 14.2989 92.5362 14.0143 92.2512 13.4385C91.96 12.8626 91.954 12.0286 92.2208 10.9364C92.4877 9.8443 92.9135 8.99044 93.5019 8.37486C94.0902 7.75929 94.7786 7.45216 95.5683 7.45216C96.3568 7.45216 96.8906 7.75002 97.1696 8.33912C97.4486 8.9302 97.4504 9.77943 97.1787 10.8875L97.1763 10.8855ZM98.6016 5.07062L98.1934 6.73201C98.0175 6.13298 97.6779 5.65641 97.1745 5.30229C96.665 4.94883 96.0402 4.77276 95.2942 4.77276C94.3783 4.77276 93.494 5.0309 92.6497 5.54719C91.8066 6.06348 91.0666 6.78761 90.4358 7.72487C89.805 8.66213 89.344 9.73045 89.0468 10.9285C88.7526 12.1312 88.695 13.1856 88.8709 14.103C89.0486 15.0164 89.4314 15.722 90.0233 16.2145C90.6141 16.7043 91.3759 16.9519 92.3039 16.9519C93.05 16.9519 93.7627 16.7824 94.439 16.4422C95.0984 16.1154 95.6847 15.6359 96.1573 15.037L95.7327 16.7698H98.8807L101.754 5.07393H98.6065L98.6016 5.07062ZM114.97 5.07459L114.972 5.07128H113.037C112.975 5.07128 112.921 5.07459 112.864 5.07591H111.861L111.345 5.85697L111.218 6.0423L111.163 6.13497L107.084 12.3357L106.241 5.07459H102.9L104.592 16.1086L100.856 21.7547H104.186L105.09 20.3561C105.115 20.315 105.138 20.2806 105.169 20.2369L106.224 18.602L106.254 18.5557L110.981 11.2416L114.966 5.08584L114.972 5.08187H114.97V5.07459Z" fill="#072654"/>
</svg>
